<svg width="22" height="22" viewBox="0 0 22 22" fill="none" xmlns="http://www.w3.org/2000/svg">
<mask id="mask0_143_1125" style="mask-type:alpha" maskUnits="userSpaceOnUse" x="0" y="0" width="22" height="22">
<rect x="0.5" y="0.5" width="21" height="21" fill="white"/>
</mask>
<g mask="url(#mask0_143_1125)">
<path d="M17.9563 18.875C16.1333 18.875 14.3323 18.4776 12.5531 17.6828C10.774 16.888 9.15521 15.7615 7.69688 14.3031C6.23854 12.8448 5.11198 11.226 4.31719 9.44688C3.5224 7.66771 3.125 5.86667 3.125 4.04375C3.125 3.78125 3.2125 3.5625 3.3875 3.3875C3.5625 3.2125 3.78125 3.125 4.04375 3.125H7.5875C7.79167 3.125 7.97396 3.19427 8.13438 3.33281C8.29479 3.47135 8.38958 3.63542 8.41875 3.825L8.9875 6.8875C9.01667 7.12083 9.00938 7.31771 8.96563 7.47813C8.92188 7.63854 8.84167 7.77708 8.725 7.89375L6.60313 10.0375C6.89479 10.5771 7.24115 11.0984 7.64219 11.6016C8.04323 12.1047 8.48438 12.5896 8.96563 13.0563C9.41771 13.5083 9.89167 13.9276 10.3875 14.3141C10.8833 14.7005 11.4083 15.0542 11.9625 15.375L14.0188 13.3188C14.15 13.1875 14.3214 13.0891 14.5328 13.0234C14.7443 12.9578 14.9521 12.9396 15.1562 12.9688L18.175 13.5813C18.3792 13.6396 18.5469 13.7453 18.6781 13.8984C18.8094 14.0516 18.875 14.2229 18.875 14.4125V17.9563C18.875 18.2188 18.7875 18.4375 18.6125 18.6125C18.4375 18.7875 18.2188 18.875 17.9563 18.875Z" fill="white"/>
</g>
</svg>
