<svg width="21" height="17" viewBox="0 0 21 17" fill="none" xmlns="http://www.w3.org/2000/svg">
<path d="M9.18605 16.8086C9.31156 16.6859 9.38206 16.5195 9.38206 16.3461C9.38206 16.1726 9.31156 16.0063 9.18605 15.8836L2.28825 9.14662L20.3298 9.14662C20.5075 9.14662 20.678 9.07766 20.8037 8.95492C20.9294 8.83218 21 8.66571 21 8.49212C21 8.31854 20.9294 8.15207 20.8037 8.02933C20.678 7.90658 20.5075 7.83763 20.3298 7.83763L2.28825 7.83763L9.18605 1.10068C9.30444 0.97661 9.36889 0.812509 9.36583 0.64295C9.36277 0.473391 9.29243 0.311612 9.16963 0.191697C9.04683 0.071782 8.88116 0.00309325 8.70753 0.000101588C8.53389 -0.00289008 8.36584 0.0600488 8.23879 0.175659L0.196012 8.02961C0.0704992 8.15233 3.63621e-07 8.31868 3.71203e-07 8.49212C3.78784e-07 8.66557 0.0704993 8.83192 0.196012 8.95464L8.23879 16.8086C8.36446 16.9312 8.53481 17 8.71242 17C8.89003 17 9.06038 16.9312 9.18605 16.8086Z" fill="#201A1A"/>
</svg>
