<svg width="21" height="17" viewBox="0 0 21 17" fill="none" xmlns="http://www.w3.org/2000/svg">
<path d="M11.8139 16.8086C11.6884 16.6859 11.6179 16.5195 11.6179 16.3461C11.6179 16.1726 11.6884 16.0063 11.8139 15.8836L18.7117 9.14662L0.67023 9.14662C0.492475 9.14662 0.321998 9.07766 0.196306 8.95492C0.0706116 8.83218 -3.7879e-07 8.66571 -3.71203e-07 8.49212C-3.63615e-07 8.31854 0.0706116 8.15207 0.196306 8.02933C0.321998 7.90658 0.492475 7.83763 0.670231 7.83763L18.7117 7.83763L11.8139 1.10068C11.6956 0.97661 11.6311 0.812509 11.6342 0.64295C11.6372 0.473391 11.7076 0.311612 11.8304 0.191697C11.9532 0.071782 12.1188 0.00309325 12.2925 0.000101588C12.4661 -0.00289008 12.6342 0.0600488 12.7612 0.175659L20.804 8.02961C20.9295 8.15233 21 8.31868 21 8.49212C21 8.66557 20.9295 8.83192 20.804 8.95464L12.7612 16.8086C12.6355 16.9312 12.4652 17 12.2876 17C12.11 17 11.9396 16.9312 11.8139 16.8086Z" fill="#201A1A"/>
</svg>
